<mxfile host="65bd71144e" modified="2020-11-02T13:09:09.795Z" agent="5.0 (Windows NT 10.0; Win64; x64) AppleWebKit/537.36 (KHTML, like Gecko) Code/1.50.1 Chrome/83.0.4103.122 Electron/9.2.1 Safari/537.36" etag="6JgE-lIsF44S4uOBfK5v" version="13.6.5">
    <diagram id="1XVP-boGR7rBCRM66l5a" name="Page-1">
        <mxGraphModel dx="1670" dy="888" grid="1" gridSize="10" guides="1" tooltips="1" connect="1" arrows="1" fold="1" page="1" pageScale="1" pageWidth="1654" pageHeight="1169" background="#ffffff" math="0" shadow="0">
            <root>
                <mxCell id="0"/>
                <mxCell id="1" parent="0"/>
                <mxCell id="Z3h64LukGUeSqrbiDvaW-1" value="" style="rounded=1;whiteSpace=wrap;html=1;" parent="1" vertex="1">
                    <mxGeometry x="210" y="90" width="1100" height="880" as="geometry"/>
                </mxCell>
                <mxCell id="Z3h64LukGUeSqrbiDvaW-4" value="" style="rounded=1;whiteSpace=wrap;html=1;" parent="1" vertex="1">
                    <mxGeometry x="650" y="130" width="540" height="630" as="geometry"/>
                </mxCell>
                <mxCell id="Z3h64LukGUeSqrbiDvaW-56" value="" style="rounded=1;whiteSpace=wrap;html=1;dashed=1;" parent="1" vertex="1">
                    <mxGeometry x="670" y="470" width="500" height="270" as="geometry"/>
                </mxCell>
                <mxCell id="Z3h64LukGUeSqrbiDvaW-52" value="" style="rounded=1;whiteSpace=wrap;html=1;dashed=1;" parent="1" vertex="1">
                    <mxGeometry x="670" y="182" width="500" height="260" as="geometry"/>
                </mxCell>
                <mxCell id="Z3h64LukGUeSqrbiDvaW-2" value="" style="outlineConnect=0;dashed=0;verticalLabelPosition=bottom;verticalAlign=top;align=center;html=1;shape=mxgraph.aws3.cloud_2;fillColor=#F58534;gradientColor=none;" parent="1" vertex="1">
                    <mxGeometry x="215" y="70" width="75" height="75" as="geometry"/>
                </mxCell>
                <mxCell id="Z3h64LukGUeSqrbiDvaW-3" value="" style="outlineConnect=0;dashed=0;verticalLabelPosition=bottom;verticalAlign=top;align=center;html=1;shape=mxgraph.aws3.virtual_private_cloud;fillColor=#F58534;gradientColor=none;" parent="1" vertex="1">
                    <mxGeometry x="640" y="110" width="79.5" height="54" as="geometry"/>
                </mxCell>
                <mxCell id="Z3h64LukGUeSqrbiDvaW-84" style="edgeStyle=none;rounded=1;orthogonalLoop=1;jettySize=auto;html=1;endArrow=classic;endFill=1;" parent="1" source="Z3h64LukGUeSqrbiDvaW-5" target="Z3h64LukGUeSqrbiDvaW-6" edge="1">
                    <mxGeometry relative="1" as="geometry"/>
                </mxCell>
                <mxCell id="Z3h64LukGUeSqrbiDvaW-5" value="" style="outlineConnect=0;dashed=0;verticalLabelPosition=bottom;verticalAlign=top;align=center;html=1;shape=mxgraph.aws3.route_53;fillColor=#F58536;gradientColor=none;" parent="1" vertex="1">
                    <mxGeometry x="299" y="351" width="70.5" height="85.5" as="geometry"/>
                </mxCell>
                <mxCell id="Z3h64LukGUeSqrbiDvaW-6" value="" style="outlineConnect=0;dashed=0;verticalLabelPosition=bottom;verticalAlign=top;align=center;html=1;shape=mxgraph.aws3.api_gateway;fillColor=#D9A741;gradientColor=none;" parent="1" vertex="1">
                    <mxGeometry x="460" y="347" width="76.5" height="93" as="geometry"/>
                </mxCell>
                <mxCell id="Z3h64LukGUeSqrbiDvaW-8" value="" style="rounded=1;whiteSpace=wrap;html=1;dashed=1;" parent="1" vertex="1">
                    <mxGeometry x="690" y="192" width="180" height="230" as="geometry"/>
                </mxCell>
                <mxCell id="Z3h64LukGUeSqrbiDvaW-9" value="" style="rounded=1;whiteSpace=wrap;html=1;dashed=1;" parent="1" vertex="1">
                    <mxGeometry x="685" y="480" width="190" height="240" as="geometry"/>
                </mxCell>
                <mxCell id="Z3h64LukGUeSqrbiDvaW-10" value="" style="rounded=1;whiteSpace=wrap;html=1;dashed=1;" parent="1" vertex="1">
                    <mxGeometry x="890" y="192" width="200" height="230" as="geometry"/>
                </mxCell>
                <mxCell id="Z3h64LukGUeSqrbiDvaW-11" value="" style="rounded=1;whiteSpace=wrap;html=1;dashed=1;" parent="1" vertex="1">
                    <mxGeometry x="890" y="480" width="210" height="240" as="geometry"/>
                </mxCell>
                <mxCell id="Z3h64LukGUeSqrbiDvaW-15" value="" style="outlineConnect=0;dashed=0;verticalLabelPosition=bottom;verticalAlign=top;align=center;html=1;shape=mxgraph.aws3.ec2;fillColor=#F58534;gradientColor=none;" parent="1" vertex="1">
                    <mxGeometry x="735.25" y="193.5" width="76.5" height="93" as="geometry"/>
                </mxCell>
                <mxCell id="Z3h64LukGUeSqrbiDvaW-18" value="Public" style="text;html=1;strokeColor=none;fillColor=none;align=center;verticalAlign=middle;whiteSpace=wrap;rounded=0;dashed=1;" parent="1" vertex="1">
                    <mxGeometry x="680" y="192" width="80" height="20" as="geometry"/>
                </mxCell>
                <mxCell id="Z3h64LukGUeSqrbiDvaW-19" value="Public" style="text;html=1;strokeColor=none;fillColor=none;align=center;verticalAlign=middle;whiteSpace=wrap;rounded=0;dashed=1;" parent="1" vertex="1">
                    <mxGeometry x="700" y="480" width="80" height="20" as="geometry"/>
                </mxCell>
                <mxCell id="Z3h64LukGUeSqrbiDvaW-20" value="Private" style="text;html=1;strokeColor=none;fillColor=none;align=center;verticalAlign=middle;whiteSpace=wrap;rounded=0;dashed=1;" parent="1" vertex="1">
                    <mxGeometry x="894.75" y="480" width="80" height="20" as="geometry"/>
                </mxCell>
                <mxCell id="Z3h64LukGUeSqrbiDvaW-21" value="Private" style="text;html=1;strokeColor=none;fillColor=none;align=center;verticalAlign=middle;whiteSpace=wrap;rounded=0;dashed=1;" parent="1" vertex="1">
                    <mxGeometry x="900" y="192" width="80" height="20" as="geometry"/>
                </mxCell>
                <mxCell id="Z3h64LukGUeSqrbiDvaW-58" style="edgeStyle=orthogonalEdgeStyle;rounded=1;orthogonalLoop=1;jettySize=auto;html=1;entryX=0;entryY=0.5;entryDx=0;entryDy=0;entryPerimeter=0;endArrow=classic;endFill=1;" parent="1" source="Z3h64LukGUeSqrbiDvaW-22" target="Z3h64LukGUeSqrbiDvaW-24" edge="1">
                    <mxGeometry relative="1" as="geometry">
                        <Array as="points">
                            <mxPoint x="1250" y="282"/>
                            <mxPoint x="1250" y="437"/>
                        </Array>
                    </mxGeometry>
                </mxCell>
                <mxCell id="Z3h64LukGUeSqrbiDvaW-22" value="" style="outlineConnect=0;dashed=0;verticalLabelPosition=bottom;verticalAlign=top;align=center;html=1;shape=mxgraph.aws3.vpc_nat_gateway;fillColor=#F58536;gradientColor=none;" parent="1" vertex="1">
                    <mxGeometry x="1150" y="247" width="69" height="70" as="geometry"/>
                </mxCell>
                <mxCell id="Z3h64LukGUeSqrbiDvaW-59" style="edgeStyle=orthogonalEdgeStyle;rounded=1;orthogonalLoop=1;jettySize=auto;html=1;entryX=0;entryY=0.5;entryDx=0;entryDy=0;entryPerimeter=0;endArrow=classic;endFill=1;" parent="1" source="Z3h64LukGUeSqrbiDvaW-23" target="Z3h64LukGUeSqrbiDvaW-24" edge="1">
                    <mxGeometry relative="1" as="geometry">
                        <Array as="points">
                            <mxPoint x="1250" y="585"/>
                            <mxPoint x="1250" y="437"/>
                        </Array>
                    </mxGeometry>
                </mxCell>
                <mxCell id="Z3h64LukGUeSqrbiDvaW-23" value="" style="outlineConnect=0;dashed=0;verticalLabelPosition=bottom;verticalAlign=top;align=center;html=1;shape=mxgraph.aws3.vpc_nat_gateway;fillColor=#F58536;gradientColor=none;" parent="1" vertex="1">
                    <mxGeometry x="1140" y="549" width="69" height="72" as="geometry"/>
                </mxCell>
                <mxCell id="Z3h64LukGUeSqrbiDvaW-63" style="edgeStyle=orthogonalEdgeStyle;rounded=1;orthogonalLoop=1;jettySize=auto;html=1;endArrow=classic;endFill=1;" parent="1" source="Z3h64LukGUeSqrbiDvaW-24" target="Z3h64LukGUeSqrbiDvaW-60" edge="1">
                    <mxGeometry relative="1" as="geometry"/>
                </mxCell>
                <mxCell id="Z3h64LukGUeSqrbiDvaW-64" style="edgeStyle=orthogonalEdgeStyle;rounded=1;orthogonalLoop=1;jettySize=auto;html=1;entryX=0;entryY=0.5;entryDx=0;entryDy=0;endArrow=classic;endFill=1;" parent="1" source="Z3h64LukGUeSqrbiDvaW-24" target="Z3h64LukGUeSqrbiDvaW-61" edge="1">
                    <mxGeometry relative="1" as="geometry"/>
                </mxCell>
                <mxCell id="Z3h64LukGUeSqrbiDvaW-24" value="" style="outlineConnect=0;dashed=0;verticalLabelPosition=bottom;verticalAlign=top;align=center;html=1;shape=mxgraph.aws3.internet_gateway;fillColor=#F58534;gradientColor=none;" parent="1" vertex="1">
                    <mxGeometry x="1280" y="401" width="69" height="72" as="geometry"/>
                </mxCell>
                <mxCell id="Z3h64LukGUeSqrbiDvaW-26" style="edgeStyle=orthogonalEdgeStyle;rounded=1;orthogonalLoop=1;jettySize=auto;html=1;" parent="1" source="Z3h64LukGUeSqrbiDvaW-6" target="Z3h64LukGUeSqrbiDvaW-7" edge="1">
                    <mxGeometry relative="1" as="geometry"/>
                </mxCell>
                <mxCell id="Z3h64LukGUeSqrbiDvaW-27" style="edgeStyle=orthogonalEdgeStyle;rounded=1;orthogonalLoop=1;jettySize=auto;html=1;entryX=0;entryY=0.5;entryDx=0;entryDy=0;entryPerimeter=0;" parent="1" source="Z3h64LukGUeSqrbiDvaW-6" target="Z3h64LukGUeSqrbiDvaW-14" edge="1">
                    <mxGeometry relative="1" as="geometry"/>
                </mxCell>
                <mxCell id="Z3h64LukGUeSqrbiDvaW-28" value="管理画面" style="text;html=1;strokeColor=none;fillColor=none;align=center;verticalAlign=middle;whiteSpace=wrap;rounded=0;dashed=1;" parent="1" vertex="1">
                    <mxGeometry x="741.75" y="282" width="70" height="20" as="geometry"/>
                </mxCell>
                <mxCell id="8" style="edgeStyle=orthogonalEdgeStyle;rounded=0;orthogonalLoop=1;jettySize=auto;html=1;endArrow=none;endFill=0;" edge="1" parent="1" source="Z3h64LukGUeSqrbiDvaW-36" target="Z3h64LukGUeSqrbiDvaW-17">
                    <mxGeometry relative="1" as="geometry"/>
                </mxCell>
                <mxCell id="Z3h64LukGUeSqrbiDvaW-36" value="Elasticsearch service" style="text;html=1;strokeColor=none;fillColor=none;align=center;verticalAlign=middle;whiteSpace=wrap;rounded=0;dashed=1;" parent="1" vertex="1">
                    <mxGeometry x="1019" y="388" width="40" height="20" as="geometry"/>
                </mxCell>
                <mxCell id="Z3h64LukGUeSqrbiDvaW-39" value="" style="group" parent="1" vertex="1" connectable="0">
                    <mxGeometry x="730" y="520" width="100" height="113" as="geometry"/>
                </mxCell>
                <mxCell id="Z3h64LukGUeSqrbiDvaW-14" value="" style="outlineConnect=0;dashed=0;verticalLabelPosition=bottom;verticalAlign=top;align=center;html=1;shape=mxgraph.aws3.lambda;fillColor=#F58534;gradientColor=none;" parent="Z3h64LukGUeSqrbiDvaW-39" vertex="1">
                    <mxGeometry x="11.75" width="76.5" height="93" as="geometry"/>
                </mxCell>
                <mxCell id="Z3h64LukGUeSqrbiDvaW-30" value="VPC Lambda" style="text;html=1;strokeColor=none;fillColor=none;align=center;verticalAlign=middle;whiteSpace=wrap;rounded=0;dashed=1;" parent="Z3h64LukGUeSqrbiDvaW-39" vertex="1">
                    <mxGeometry y="93" width="100" height="20" as="geometry"/>
                </mxCell>
                <mxCell id="Z3h64LukGUeSqrbiDvaW-49" style="rounded=1;orthogonalLoop=1;jettySize=auto;html=1;entryX=0;entryY=0.5;entryDx=0;entryDy=0;entryPerimeter=0;endArrow=classic;endFill=1;exitX=1;exitY=0.5;exitDx=0;exitDy=0;exitPerimeter=0;edgeStyle=orthogonalEdgeStyle;" parent="1" source="Z3h64LukGUeSqrbiDvaW-7" target="Z3h64LukGUeSqrbiDvaW-22" edge="1">
                    <mxGeometry relative="1" as="geometry">
                        <Array as="points">
                            <mxPoint x="850" y="355"/>
                            <mxPoint x="850" y="282"/>
                        </Array>
                    </mxGeometry>
                </mxCell>
                <mxCell id="Z3h64LukGUeSqrbiDvaW-7" value="" style="outlineConnect=0;dashed=0;verticalLabelPosition=bottom;verticalAlign=top;align=center;html=1;shape=mxgraph.aws3.lambda;fillColor=#F58534;gradientColor=none;" parent="1" vertex="1">
                    <mxGeometry x="741.75" y="308" width="76.5" height="93" as="geometry"/>
                </mxCell>
                <mxCell id="Z3h64LukGUeSqrbiDvaW-29" value="VPC Lambda" style="text;html=1;strokeColor=none;fillColor=none;align=center;verticalAlign=middle;whiteSpace=wrap;rounded=0;dashed=1;" parent="1" vertex="1">
                    <mxGeometry x="730" y="398.5" width="100" height="20" as="geometry"/>
                </mxCell>
                <mxCell id="Z3h64LukGUeSqrbiDvaW-43" value="" style="endArrow=classic;html=1;entryX=0.5;entryY=0.02;entryDx=0;entryDy=0;entryPerimeter=0;edgeStyle=orthogonalEdgeStyle;" parent="1" source="Z3h64LukGUeSqrbiDvaW-7" target="Z3h64LukGUeSqrbiDvaW-12" edge="1">
                    <mxGeometry width="50" height="50" relative="1" as="geometry">
                        <mxPoint x="950" y="442" as="sourcePoint"/>
                        <mxPoint x="1000" y="392" as="targetPoint"/>
                        <Array as="points">
                            <mxPoint x="850" y="355"/>
                            <mxPoint x="850" y="282"/>
                            <mxPoint x="935" y="282"/>
                        </Array>
                    </mxGeometry>
                </mxCell>
                <mxCell id="Z3h64LukGUeSqrbiDvaW-45" value="" style="endArrow=classic;html=1;edgeStyle=orthogonalEdgeStyle;exitX=1;exitY=0.5;exitDx=0;exitDy=0;exitPerimeter=0;" parent="1" source="Z3h64LukGUeSqrbiDvaW-7" target="Z3h64LukGUeSqrbiDvaW-16" edge="1">
                    <mxGeometry width="50" height="50" relative="1" as="geometry">
                        <mxPoint x="828.25" y="364.5" as="sourcePoint"/>
                        <mxPoint x="944.75" y="333.31999999999994" as="targetPoint"/>
                        <Array as="points">
                            <mxPoint x="850" y="355"/>
                            <mxPoint x="850" y="282"/>
                            <mxPoint x="1039" y="282"/>
                        </Array>
                    </mxGeometry>
                </mxCell>
                <mxCell id="Z3h64LukGUeSqrbiDvaW-16" value="" style="outlineConnect=0;fontColor=#232F3E;gradientColor=#945DF2;gradientDirection=north;fillColor=#5A30B5;strokeColor=#ffffff;dashed=0;verticalLabelPosition=bottom;verticalAlign=top;align=center;html=1;fontSize=12;fontStyle=0;aspect=fixed;shape=mxgraph.aws4.resourceIcon;resIcon=mxgraph.aws4.elasticsearch_service;" parent="1" vertex="1">
                    <mxGeometry x="1000" y="302" width="78" height="78" as="geometry"/>
                </mxCell>
                <mxCell id="Z3h64LukGUeSqrbiDvaW-12" value="" style="outlineConnect=0;dashed=0;verticalLabelPosition=bottom;verticalAlign=top;align=center;html=1;shape=mxgraph.aws3.rds_db_instance;fillColor=#2E73B8;gradientColor=none;" parent="1" vertex="1">
                    <mxGeometry x="910" y="322" width="49.5" height="66" as="geometry"/>
                </mxCell>
                <mxCell id="Z3h64LukGUeSqrbiDvaW-47" style="rounded=0;orthogonalLoop=1;jettySize=auto;html=1;exitX=0.5;exitY=0.98;exitDx=0;exitDy=0;exitPerimeter=0;endArrow=none;endFill=0;" parent="1" source="Z3h64LukGUeSqrbiDvaW-12" target="Z3h64LukGUeSqrbiDvaW-13" edge="1">
                    <mxGeometry relative="1" as="geometry"/>
                </mxCell>
                <mxCell id="Z3h64LukGUeSqrbiDvaW-31" value="Aurora MySQL" style="text;html=1;strokeColor=none;fillColor=none;align=center;verticalAlign=middle;whiteSpace=wrap;rounded=0;dashed=1;" parent="1" vertex="1">
                    <mxGeometry x="890" y="388" width="100" height="20" as="geometry"/>
                </mxCell>
                <mxCell id="Z3h64LukGUeSqrbiDvaW-13" value="" style="outlineConnect=0;dashed=0;verticalLabelPosition=bottom;verticalAlign=top;align=center;html=1;shape=mxgraph.aws3.rds_db_instance_standby_multi_az;fillColor=#2E73B8;gradientColor=none;" parent="1" vertex="1">
                    <mxGeometry x="910.25" y="570" width="49.5" height="66" as="geometry"/>
                </mxCell>
                <mxCell id="Z3h64LukGUeSqrbiDvaW-32" value="Aurora MySQL" style="text;html=1;strokeColor=none;fillColor=none;align=center;verticalAlign=middle;whiteSpace=wrap;rounded=0;dashed=1;" parent="1" vertex="1">
                    <mxGeometry x="890" y="636" width="100" height="20" as="geometry"/>
                </mxCell>
                <mxCell id="Z3h64LukGUeSqrbiDvaW-17" value="" style="outlineConnect=0;fontColor=#232F3E;gradientColor=#945DF2;gradientDirection=north;fillColor=#5A30B5;strokeColor=#ffffff;dashed=0;verticalLabelPosition=bottom;verticalAlign=top;align=center;html=1;fontSize=12;fontStyle=0;aspect=fixed;shape=mxgraph.aws4.resourceIcon;resIcon=mxgraph.aws4.elasticsearch_service;" parent="1" vertex="1">
                    <mxGeometry x="1000" y="570" width="78" height="78" as="geometry"/>
                </mxCell>
                <mxCell id="Z3h64LukGUeSqrbiDvaW-38" value="Elasticsearch service" style="text;html=1;strokeColor=none;fillColor=none;align=center;verticalAlign=middle;whiteSpace=wrap;rounded=0;dashed=1;" parent="1" vertex="1">
                    <mxGeometry x="1019" y="653" width="40" height="20" as="geometry"/>
                </mxCell>
                <mxCell id="Z3h64LukGUeSqrbiDvaW-53" value="AZ 1a" style="text;html=1;strokeColor=none;fillColor=none;align=center;verticalAlign=middle;whiteSpace=wrap;rounded=0;dashed=1;" parent="1" vertex="1">
                    <mxGeometry x="700" y="162" width="40" height="20" as="geometry"/>
                </mxCell>
                <mxCell id="Z3h64LukGUeSqrbiDvaW-57" value="AZ 1c" style="text;html=1;strokeColor=none;fillColor=none;align=center;verticalAlign=middle;whiteSpace=wrap;rounded=0;dashed=1;" parent="1" vertex="1">
                    <mxGeometry x="690" y="450" width="40" height="20" as="geometry"/>
                </mxCell>
                <mxCell id="Z3h64LukGUeSqrbiDvaW-60" value="別サービス" style="rounded=1;whiteSpace=wrap;html=1;" parent="1" vertex="1">
                    <mxGeometry x="1390" y="368" width="120" height="60" as="geometry"/>
                </mxCell>
                <mxCell id="Z3h64LukGUeSqrbiDvaW-61" value="別システム" style="rounded=1;whiteSpace=wrap;html=1;" parent="1" vertex="1">
                    <mxGeometry x="1390" y="460" width="120" height="60" as="geometry"/>
                </mxCell>
                <mxCell id="Z3h64LukGUeSqrbiDvaW-107" style="edgeStyle=none;rounded=1;orthogonalLoop=1;jettySize=auto;html=1;endArrow=classic;endFill=1;" parent="1" source="Z3h64LukGUeSqrbiDvaW-65" target="Z3h64LukGUeSqrbiDvaW-7" edge="1">
                    <mxGeometry relative="1" as="geometry"/>
                </mxCell>
                <mxCell id="Z3h64LukGUeSqrbiDvaW-65" value="" style="outlineConnect=0;dashed=0;verticalLabelPosition=bottom;verticalAlign=top;align=center;html=1;shape=mxgraph.aws3.cloudwatch;fillColor=#759C3E;gradientColor=none;" parent="1" vertex="1">
                    <mxGeometry x="460" y="492" width="82.5" height="93" as="geometry"/>
                </mxCell>
                <mxCell id="Z3h64LukGUeSqrbiDvaW-83" style="edgeStyle=none;rounded=1;orthogonalLoop=1;jettySize=auto;html=1;endArrow=classic;endFill=1;exitX=1.04;exitY=0.195;exitDx=0;exitDy=0;exitPerimeter=0;" parent="1" source="4" target="Z3h64LukGUeSqrbiDvaW-5" edge="1">
                    <mxGeometry relative="1" as="geometry">
                        <mxPoint x="186" y="393.5658385093168" as="sourcePoint"/>
                    </mxGeometry>
                </mxCell>
                <mxCell id="Z3h64LukGUeSqrbiDvaW-99" style="edgeStyle=none;rounded=1;orthogonalLoop=1;jettySize=auto;html=1;endArrow=classic;endFill=1;exitX=1.02;exitY=0.78;exitDx=0;exitDy=0;exitPerimeter=0;" parent="1" source="4" target="Z3h64LukGUeSqrbiDvaW-69" edge="1">
                    <mxGeometry relative="1" as="geometry">
                        <mxPoint x="166.48948220064722" y="446.5" as="sourcePoint"/>
                    </mxGeometry>
                </mxCell>
                <mxCell id="Z3h64LukGUeSqrbiDvaW-102" style="edgeStyle=none;rounded=1;orthogonalLoop=1;jettySize=auto;html=1;endArrow=classic;endFill=1;" parent="1" source="Z3h64LukGUeSqrbiDvaW-68" target="Z3h64LukGUeSqrbiDvaW-69" edge="1">
                    <mxGeometry relative="1" as="geometry"/>
                </mxCell>
                <mxCell id="Z3h64LukGUeSqrbiDvaW-68" value="" style="outlineConnect=0;dashed=0;verticalLabelPosition=bottom;verticalAlign=top;align=center;html=1;shape=mxgraph.aws3.s3;fillColor=#E05243;gradientColor=none;" parent="1" vertex="1">
                    <mxGeometry x="450.93" y="657" width="76.5" height="93" as="geometry"/>
                </mxCell>
                <mxCell id="Z3h64LukGUeSqrbiDvaW-69" value="" style="outlineConnect=0;dashed=0;verticalLabelPosition=bottom;verticalAlign=top;align=center;html=1;shape=mxgraph.aws3.cloudfront;fillColor=#F58536;gradientColor=none;" parent="1" vertex="1">
                    <mxGeometry x="290" y="656" width="76.5" height="93" as="geometry"/>
                </mxCell>
                <mxCell id="Z3h64LukGUeSqrbiDvaW-74" style="rounded=1;orthogonalLoop=1;jettySize=auto;html=1;entryX=1;entryY=0.5;entryDx=0;entryDy=0;entryPerimeter=0;endArrow=classic;endFill=1;" parent="1" source="Z3h64LukGUeSqrbiDvaW-70" target="Z3h64LukGUeSqrbiDvaW-71" edge="1">
                    <mxGeometry relative="1" as="geometry"/>
                </mxCell>
                <mxCell id="Z3h64LukGUeSqrbiDvaW-70" value="" style="dashed=0;outlineConnect=0;html=1;align=center;labelPosition=center;verticalLabelPosition=bottom;verticalAlign=top;shape=mxgraph.weblogos.github" parent="1" vertex="1">
                    <mxGeometry x="1340" y="824" width="75" height="75" as="geometry"/>
                </mxCell>
                <mxCell id="Z3h64LukGUeSqrbiDvaW-76" style="edgeStyle=none;rounded=1;orthogonalLoop=1;jettySize=auto;html=1;entryX=1;entryY=0.5;entryDx=0;entryDy=0;entryPerimeter=0;endArrow=classic;endFill=1;" parent="1" source="Z3h64LukGUeSqrbiDvaW-71" target="Z3h64LukGUeSqrbiDvaW-72" edge="1">
                    <mxGeometry relative="1" as="geometry"/>
                </mxCell>
                <mxCell id="Z3h64LukGUeSqrbiDvaW-71" value="" style="outlineConnect=0;dashed=0;verticalLabelPosition=bottom;verticalAlign=top;align=center;html=1;shape=mxgraph.aws3.codepipeline;fillColor=#759C3E;gradientColor=none;" parent="1" vertex="1">
                    <mxGeometry x="1180" y="819.5" width="67.5" height="81" as="geometry"/>
                </mxCell>
                <mxCell id="Z3h64LukGUeSqrbiDvaW-72" value="" style="outlineConnect=0;dashed=0;verticalLabelPosition=bottom;verticalAlign=top;align=center;html=1;shape=mxgraph.aws3.cloudformation;fillColor=#759C3E;gradientColor=none;" parent="1" vertex="1">
                    <mxGeometry x="1020" y="813.5" width="76.5" height="93" as="geometry"/>
                </mxCell>
                <mxCell id="Z3h64LukGUeSqrbiDvaW-77" value="CloudFormation" style="text;html=1;strokeColor=none;fillColor=none;align=center;verticalAlign=middle;whiteSpace=wrap;rounded=0;" parent="1" vertex="1">
                    <mxGeometry x="1039" y="906.5" width="40" height="20" as="geometry"/>
                </mxCell>
                <mxCell id="Z3h64LukGUeSqrbiDvaW-80" value="CodePipeline" style="text;html=1;strokeColor=none;fillColor=none;align=center;verticalAlign=middle;whiteSpace=wrap;rounded=0;" parent="1" vertex="1">
                    <mxGeometry x="1199" y="906.5" width="40" height="20" as="geometry"/>
                </mxCell>
                <mxCell id="Z3h64LukGUeSqrbiDvaW-81" value="GitHub WebHook" style="text;html=1;strokeColor=none;fillColor=none;align=center;verticalAlign=middle;whiteSpace=wrap;rounded=0;" parent="1" vertex="1">
                    <mxGeometry x="1357.5" y="906.5" width="40" height="20" as="geometry"/>
                </mxCell>
                <mxCell id="Z3h64LukGUeSqrbiDvaW-82" value="GitHub Actionsで&lt;br&gt;テスト実行" style="ellipse;shape=cloud;whiteSpace=wrap;html=1;" parent="1" vertex="1">
                    <mxGeometry x="1357.5" y="770" width="150" height="90" as="geometry"/>
                </mxCell>
                <mxCell id="Z3h64LukGUeSqrbiDvaW-94" value="Route53" style="text;html=1;strokeColor=none;fillColor=none;align=center;verticalAlign=middle;whiteSpace=wrap;rounded=0;" parent="1" vertex="1">
                    <mxGeometry x="304.75" y="440" width="64.75" height="20" as="geometry"/>
                </mxCell>
                <mxCell id="Z3h64LukGUeSqrbiDvaW-95" value="API Gateway" style="text;html=1;strokeColor=none;fillColor=none;align=center;verticalAlign=middle;whiteSpace=wrap;rounded=0;" parent="1" vertex="1">
                    <mxGeometry x="450.93" y="442" width="100.63" height="20" as="geometry"/>
                </mxCell>
                <mxCell id="Z3h64LukGUeSqrbiDvaW-100" value="CloudFront" style="text;html=1;strokeColor=none;fillColor=none;align=center;verticalAlign=middle;whiteSpace=wrap;rounded=0;" parent="1" vertex="1">
                    <mxGeometry x="308.25" y="750" width="40" height="20" as="geometry"/>
                </mxCell>
                <mxCell id="Z3h64LukGUeSqrbiDvaW-101" value="S3&lt;br&gt;画像&lt;br&gt;静的ページ" style="text;html=1;strokeColor=none;fillColor=none;align=center;verticalAlign=middle;whiteSpace=wrap;rounded=0;" parent="1" vertex="1">
                    <mxGeometry x="440.75" y="750" width="101.75" height="41" as="geometry"/>
                </mxCell>
                <mxCell id="Z3h64LukGUeSqrbiDvaW-103" value="CloudWatch Event" style="text;html=1;strokeColor=none;fillColor=none;align=center;verticalAlign=middle;whiteSpace=wrap;rounded=0;" parent="1" vertex="1">
                    <mxGeometry x="478.25" y="593" width="40" height="20" as="geometry"/>
                </mxCell>
                <mxCell id="Z3h64LukGUeSqrbiDvaW-108" value="Batch処理" style="text;html=1;strokeColor=none;fillColor=none;align=center;verticalAlign=middle;whiteSpace=wrap;rounded=0;" parent="1" vertex="1">
                    <mxGeometry x="580" y="492" width="40" height="20" as="geometry"/>
                </mxCell>
                <mxCell id="4" value="" style="html=1;verticalLabelPosition=bottom;align=center;labelBackgroundColor=#ffffff;verticalAlign=top;strokeWidth=2;strokeColor=#0080F0;shadow=0;dashed=0;shape=mxgraph.ios7.icons.smartphone;" vertex="1" parent="1">
                    <mxGeometry x="100" y="378" width="50" height="82" as="geometry"/>
                </mxCell>
            </root>
        </mxGraphModel>
    </diagram>
</mxfile>